<?xml version="1.0" encoding="UTF-8" standalone="no"?>
<!-- Created with Inkscape (http://www.inkscape.org/) -->

<svg
   version="1.1"
   id="svg2"
   width="960"
   height="960"
   viewBox="0 0 960 960"
   sodipodi:docname="LOGO_transparent.svg"
   inkscape:version="1.2.2 (732a01da63, 2022-12-09)"
   inkscape:export-filename="Logo def.svg"
   inkscape:export-xdpi="96"
   inkscape:export-ydpi="96"
   xmlns:inkscape="http://www.inkscape.org/namespaces/inkscape"
   xmlns:sodipodi="http://sodipodi.sourceforge.net/DTD/sodipodi-0.dtd"
   xmlns="http://www.w3.org/2000/svg"
   xmlns:svg="http://www.w3.org/2000/svg">
  <defs
     id="defs6" />
  <sodipodi:namedview
     id="namedview4"
     pagecolor="#ffffff"
     bordercolor="#000000"
     borderopacity="0.25"
     inkscape:showpageshadow="2"
     inkscape:pageopacity="0.0"
     inkscape:pagecheckerboard="0"
     inkscape:deskcolor="#d1d1d1"
     showgrid="false"
     inkscape:zoom="0.871875"
     inkscape:cx="67.670251"
     inkscape:cy="481.72043"
     inkscape:window-width="1920"
     inkscape:window-height="1017"
     inkscape:window-x="-8"
     inkscape:window-y="-8"
     inkscape:window-maximized="1"
     inkscape:current-layer="g8"
     showguides="true"
     inkscape:lockguides="false" />
  <g
     inkscape:groupmode="layer"
     inkscape:label="Image"
     id="g8">
    <g
       id="g1696"
       transform="matrix(1.3632785,0,0,1.3632785,-208.09823,-110.84394)">
      <g
         id="g1341"
         transform="matrix(1.4428093,0,0,1.4428093,139.11429,-592.17415)">
        <path
           style="fill:#000000;stroke-width:0.96"
           d="m 146.52603,630.93555 c -10.01144,-10.06236 -11.85365,-16.62464 -11.88851,-42.34888 -0.0317,-23.40468 1.82086,-44.34029 5.12156,-57.8778 3.53302,-14.49028 4.91808,-22.53942 5.89911,-34.2822 0.61949,-7.41524 1.75736,-12.42066 3.45003,-15.17649 0.10016,-0.16307 3.09117,1.02254 6.64669,2.63469 6.4018,2.90271 6.45818,2.96152 5.8066,6.05648 -1.78628,8.48468 -2.3486,13.78039 -1.84974,17.41999 0.345,2.51711 0.0266,5.2504 -0.85832,7.36834 -1.14805,2.74768 -1.27133,6.09707 -0.67027,18.21194 0.40508,8.16477 1.21724,17.2182 1.8048,20.11872 0.58757,2.90052 1.51285,10.46052 2.05619,16.8 1.29759,15.13999 1.70351,19.0297 2.70557,25.92633 0.61485,4.23169 0.50729,6.4056 -0.40543,8.19318 -0.6833,1.33824 -1.54417,4.042 -1.91306,6.00834 -0.36889,1.96635 -1.54207,4.68293 -2.60706,6.03684 -1.69116,2.14996 -1.77727,2.75889 -0.68009,4.809 1.14276,2.13526 0.99311,2.62765 -1.65638,5.44999 -1.60195,1.70645 -3.16673,3.83039 -3.47728,4.71986 -1.25676,3.59954 -3.85875,3.57578 -7.48441,-0.0684 z m 11.13132,-15.46888 c 0.32632,-0.528 0.13582,-0.96 -0.42334,-0.96 -0.55916,0 -1.01666,0.432 -1.01666,0.96 0,0.528 0.1905,0.96 0.42334,0.96 0.23284,0 0.69034,-0.432 1.01666,-0.96 z m 2.4,-23.85391 c 0,-0.44765 -1.38693,-0.85334 -3.08206,-0.90153 -2.23605,-0.0636 -2.69721,0.1558 -1.68,0.79921 1.76524,1.11654 4.76206,1.18094 4.76206,0.10232 z m -18.80579,-6.38609 c 0.33131,-1.32 1.02614,-2.4 1.54408,-2.4 0.51794,0 0.94171,-0.432 0.94171,-0.96 0,-0.528 -0.612,-0.96 -1.36,-0.96 -0.748,0 -1.52362,-0.49086 -1.7236,-1.09079 -0.25861,-0.77585 -0.97465,-0.70918 -2.47999,0.23093 -2.45503,1.53318 -2.74241,3.29422 -0.6675,4.09044 0.79689,0.3058 1.39374,0.89202 1.32631,1.3027 -0.50441,3.07247 1.64183,2.88324 2.41899,-0.21328 z m 10.16579,-0.42334 c 0,-1.13267 -1.87234,-2.34432 -2.56,-1.65666 -0.68766,0.68766 0.52399,2.56 1.65666,2.56 0.49684,0 0.90334,-0.4065 0.90334,-0.90334 z m -11.76,-10.13666 c 0,-1.32 -0.42838,-2.4 -0.95196,-2.4 -0.52359,0 -0.72588,0.8646 -0.44953,1.92132 0.27633,1.05673 0.14057,1.69769 -0.3017,1.42435 -0.44228,-0.27334 -1.07549,-0.058 -1.40713,0.47867 -0.33164,0.53661 0.2325,0.97566 1.25366,0.97566 1.34044,0 1.85666,-0.6673 1.85666,-2.4 z"
           id="path1314" />
        <path
           style="fill:#000000;stroke-width:0.96"
           d="m 60.695002,633.70466 c -1.82414,-2.01509 -1.92703,-3.62323 -2.10981,-32.97819 -0.20048,-32.19623 -0.65246,-45.17059 -2.24551,-64.4598 -1.92701,-23.33278 -2.49083,-27.89617 -3.76551,-30.47717 -1.08327,-2.19341 -1.09094,-3.32419 -0.0455,-6.72 0.69128,-2.24555 1.73204,-6.88038 2.3128,-10.29961 0.86891,-5.11568 1.481,-6.43091 3.45593,-7.42585 3.02058,-1.5217 11.49666,-1.59118 15.0575,-0.12341 1.48638,0.61267 3.24556,1.02503 3.90931,0.91634 1.69809,-0.27803 12.78545,7.80702 15.20127,11.08499 2.54187,3.449 12.158888,19.07248 14.086658,22.88471 1.76669,3.49367 4.03333,16.90289 3.31897,19.63463 -0.28306,1.08241 -0.12379,1.72645 0.35392,1.43121 0.82531,-0.51007 0.37717,24.09282 -0.59553,32.69416 -1.75254,15.49741 -2.71893,21.6 -3.42051,21.6 -0.44623,0 -0.53548,0.71887 -0.19832,1.59748 0.38774,1.01044 0.23317,1.36274 -0.4206,0.95868 -0.65754,-0.40638 -0.85081,0.0603 -0.53118,1.28252 0.27634,1.05672 0.0605,1.92132 -0.47965,1.92132 -0.54015,0 -0.73964,0.92715 -0.4433,2.06033 0.4695,1.79539 0.21479,1.9984 -1.98083,1.57868 -1.38578,-0.26491 -2.338788,-0.18909 -2.11779,0.1685 0.221,0.35758 -0.198458,1.80718 -0.932118,3.22132 -1.22605,2.36321 -1.18326,2.57117 0.52913,2.57117 1.024688,0 1.863068,0.4575 1.863068,1.01666 0,0.55916 -0.38463,0.77893 -0.85474,0.4884 -0.4701,-0.29054 -1.137488,0.97896 -1.483078,2.82112 -0.39286,2.09412 -2.14128,4.88485 -4.66527,7.44643 -2.2203,2.25338 -5.67264,5.97911 -7.67185,8.2794 -3.44564,3.96451 -3.72737,4.09868 -5.40973,2.57617 -1.68043,-1.52078 -1.93189,-1.41556 -4.73001,1.97904 -2.67851,3.24949 -3.47559,3.62284 -8.51262,3.98718 -4.80363,0.34746 -5.8175,0.11466 -7.47505,-1.71641 z m 25.97735,-9.9995 c 1.02409,-0.74883 1.60792,-1.61557 1.2974,-1.92609 -0.31052,-0.31052 -1.56394,0.30216 -2.78538,1.36151 -2.5239,2.18897 -1.34515,2.63621 1.48798,0.56458 z m -5.335,-0.98183 c 0,-0.23284 -0.432,-0.69034 -0.96,-1.01666 -0.528,-0.32632 -0.96,-0.13582 -0.96,0.42334 0,0.55916 0.432,1.01666 0.96,1.01666 0.528,0 0.96,-0.1905 0.96,-0.42334 z m 4.08527,-1.25666 c 0.47192,-0.94758 -3.79713,-5.00815 -4.51283,-4.29244 -0.30385,0.30384 -0.27693,-0.92806 0.0598,-2.73756 0.5693,-3.05918 0.49873,-3.18264 -1.00589,-1.75982 -2.03942,1.92855 -1.13735,6.31287 1.46907,7.14011 1.00351,0.31851 1.82456,0.98198 1.82456,1.4744 0,1.06785 1.65406,1.20177 2.16527,0.17531 z m 0.32179,-5.75293 c -0.66575,-0.66575 -2.48706,0.68692 -2.48706,1.84713 0,0.63658 0.55083,0.56374 1.46319,-0.19346 0.80476,-0.66789 1.26551,-1.41204 1.02387,-1.65367 z m 10.23294,-4.46344 c 2.23195,-1.69429 2.15218,-2.82389 -0.11378,-1.61119 -0.98658,0.528 -2.06658,0.68721 -2.4,0.35378 -0.33342,-0.33342 -0.60622,0.11378 -0.60622,0.99378 0,1.91104 0.85467,1.98326 3.12,0.26363 z m -0.47847,-3.93908 c 0.39516,-0.4358 0.10505,-0.43624 -0.64468,-9.6e-4 -1.01534,0.58947 -1.20673,0.3838 -0.75013,-0.80609 0.8049,-2.09751 0.13506,-2.01927 -2.13342,0.24921 -1.82226,1.82226 -1.81588,1.84341 0.48154,1.59847 1.28052,-0.13653 2.65154,-0.6048 3.04669,-1.04061 z m 2.52476,-3.89441 c 0.32784,-0.85433 0.1669,-1.23967 -0.37729,-0.90334 -0.52195,0.32258 -0.949,0.99302 -0.949,1.48986 0,1.38089 0.68809,1.0766 1.32629,-0.58652 z m -15.72629,-2.94991 c 0,-0.79555 0.51922,-2.39005 1.15383,-3.54334 0.6346,-1.15329 1.23055,-2.54266 1.32432,-3.08749 0.0938,-0.54483 1.0872,-4.33204 2.20763,-8.41603 4.02565,-14.67363 7.65535,-51.16445 6.43236,-64.66715 -1.1147,-12.30715 -7.80368,-25.3054 -15.86936,-30.83788 -3.99298,-2.73889 -5.10729,-3.0697 -8.50832,-2.52585 -3.75197,0.59996 -3.98205,0.8435 -5.57177,5.89763 -1.32158,4.20168 -1.42535,5.64465 -0.51115,7.10852 0.63087,1.01018 1.37582,3.8785 1.65545,6.37403 0.27963,2.49553 1.3787,7.02407 2.44238,10.06341 1.06369,3.03934 2.14821,6.70754 2.41006,8.15155 0.26185,1.44401 1.09322,3.30739 1.84749,4.14085 1.90971,2.1102 5.39909,12.54424 4.87685,14.58284 -0.2369,0.92473 -0.039,1.43924 0.43975,1.14335 0.47876,-0.2959 0.87048,1.56111 0.87048,4.12667 0,2.56556 0.5184,5.18306 1.152,5.81666 0.6336,0.6336 0.87521,1.152 0.53693,1.152 -0.33829,0 -0.0148,1.15702 0.71887,2.57117 1.36997,2.64063 1.05318,4.62121 -0.57792,3.61313 -1.16821,-0.72199 -0.69301,1.7572 0.5019,2.61853 1.30487,0.94058 1.88199,21.30148 0.58099,20.49743 -0.56325,-0.34811 -0.77555,-1.03508 -0.47178,-1.5266 0.97221,-1.57306 -1.19609,-0.95507 -2.56345,0.73062 -0.89525,1.10368 -0.93293,1.39321 -0.11754,0.90334 0.66,-0.39652 1.2,-0.26344 1.2,0.29572 0,0.55916 0.5943,1.01666 1.32068,1.01666 1.05649,0 1.22352,1.65919 0.83497,8.29393 -0.35292,6.02634 -0.18907,8.11059 0.59931,7.62334 0.59677,-0.36882 1.08504,-1.32149 1.08504,-2.11704 z"
           id="path1312" />
        <path
           style="fill:#000000;stroke-width:0.96"
           d="m 392.85734,635.80958 c -9.71738,-4.12438 -10.39702,-5.82913 -9.51846,-23.87538 0.62171,-12.7704 3.67149,-34.81536 4.94776,-35.76426 0.40188,-0.2988 0.7492,-6.59127 0.77182,-13.98327 0.0226,-7.392 0.5802,-17.76 1.2391,-23.04 0.65889,-5.28 1.59184,-14.136 2.07321,-19.68 0.48138,-5.544 1.31666,-11.55037 1.85618,-13.34749 0.53953,-1.79712 1.05675,-5.79312 1.14937,-8.88 0.0926,-3.08688 0.47573,-5.61251 0.85134,-5.61251 0.37561,0 0.23936,-1.66187 -0.30279,-3.69304 -0.54215,-2.03117 -0.70476,-4.42524 -0.36136,-5.32015 0.90122,-2.34853 5.68443,-4.06711 10.13771,-3.64242 3.06427,0.29223 3.90756,0.78724 4.14189,2.43127 0.21763,1.52689 0.85658,1.98615 2.45423,1.76399 1.188,-0.16518 2.16,0.19314 2.16,0.79629 0,0.71903 0.99163,0.87882 2.88,0.46406 1.71957,-0.37768 2.88,-0.24108 2.88,0.33903 0,0.53437 0.756,1.22448 1.68,1.53358 1.4545,0.48657 5.04,6.58193 5.04,8.56801 0,0.38038 1.53129,3.0854 3.40286,6.01114 1.99747,3.12254 4.7942,9.90966 6.77167,16.43354 1.85285,6.11271 3.77756,11.87777 4.27714,12.81125 0.49958,0.93347 0.90833,3.22142 0.90833,5.08433 0,3.14491 2.75334,12.32101 4.85072,16.16609 0.5001,0.91684 0.91724,3.72484 0.92697,6.24 0.0185,4.78938 2.42595,19.89033 3.42994,21.51481 0.32052,0.51862 0.76579,6.42288 0.9895,13.12058 0.2237,6.6977 0.8832,15.63364 1.46555,19.85764 1.7018,12.34371 1.53462,14.85749 -1.13168,17.01653 -3.0297,2.4533 -7.95969,1.72668 -11.53676,-1.70037 -4.18389,-4.00843 -5.63028,-11.16444 -5.9307,-29.34225 l -0.26354,-15.94608 -12.79367,-1.66024 c -7.03652,-0.91314 -12.98958,-1.46434 -13.22901,-1.22491 -0.23943,0.23943 -0.83379,4.70628 -1.32079,9.92633 -0.48701,5.22005 -1.31293,13.16299 -1.8354,17.65099 -0.52246,4.488 -1.24435,12.696 -1.60418,18.24 -0.35984,5.544 -1.08576,10.62 -1.61315,11.28 -1.30689,1.6355 -5.22918,1.4215 -9.8438,-0.53709 z m 26.03596,-71.63136 c 3.63223,-0.16402 8.64302,-0.35522 11.13511,-0.42489 l 4.53106,-0.12666 -0.35671,-11.95165 c -0.25064,-8.39817 -0.92179,-13.74996 -2.25727,-18 -1.04532,-3.3266 -2.38857,-7.77635 -2.985,-9.88835 -1.13191,-4.00812 -12.81286,-20.64 -14.49595,-20.64 -0.53196,0 -0.97349,1.404 -0.98117,3.12 -0.008,1.716 -0.7094,5.064 -1.55936,7.44 -1.35057,3.77535 -2.94248,23.64456 -3.53809,44.16 -0.15342,5.28429 0.75346,7.8185 2.55104,7.1287 0.74376,-0.28541 4.32412,-0.65313 7.95634,-0.81715 z m -10.67596,-67.75155 c 0.32632,-0.528 0.13582,-0.96 -0.42334,-0.96 -0.55916,0 -1.01666,0.432 -1.01666,0.96 0,0.528 0.1905,0.96 0.42334,0.96 0.23284,0 0.69034,-0.432 1.01666,-0.96 z m -4.8068,-2.86901 c 0.33633,-0.54418 -0.0491,-0.70512 -0.90334,-0.37729 -0.96558,0.37053 -1.48986,0.0288 -1.48986,-0.97099 0,-0.8485 -0.71495,-1.54271 -1.58879,-1.54271 -1.42879,0 -1.4138,0.19335 0.14879,1.92 1.92846,2.13092 2.95553,2.39109 3.8332,0.97099 z m 12.9668,-0.97099 c -0.56515,-1.056 -1.55235,-1.91339 -2.19377,-1.9053 -0.73262,0.01 -0.63083,0.36071 0.27377,0.9453 0.792,0.51183 1.008,0.94383 0.48,0.96 -0.528,0.0161 -0.312,0.44817 0.48,0.96 2.02393,1.30796 2.12154,1.21036 0.96,-0.96 z"
           id="path1308" />
        <path
           style="fill:#000000;stroke-width:0.96"
           d="m 337.65735,635.52427 c -1.848,-1.10735 -4.53691,-3.11951 -5.97536,-4.47148 -3.03808,-2.85543 -7.79724,-13.73234 -9.83184,-22.47037 -0.77809,-3.34166 -3.10031,-11.69175 -5.1605,-18.55575 -2.06018,-6.864 -4.70926,-17.664 -5.88683,-24 -6.2018,-33.36896 -7.9809,-41.35541 -9.58615,-43.03238 -1.58335,-1.65411 -1.76958,-1.66022 -3.32093,-0.10888 -1.23142,1.23143 -1.58762,3.01279 -1.42061,7.10465 0.12258,3.00361 -0.0284,5.86774 -0.33556,6.3647 -0.30715,0.49697 -0.18089,2.84046 0.28057,5.20774 0.46146,2.36729 1.27589,7.54417 1.80985,11.50417 0.53396,3.96 1.65789,9.576 2.49762,12.48 1.56368,5.40754 4.24929,19.90908 4.80025,25.92 0.91877,10.0235 0.13173,31.13292 -1.29385,34.70313 -2.12885,5.33142 -8.75741,7.18612 -14.69996,4.11311 -3.54196,-1.83162 -5.6367,-6.49574 -5.6367,-12.55059 0,-2.48382 -0.65692,-8.02176 -1.45981,-12.30655 -1.19562,-6.38055 -1.31609,-11.43271 -0.66566,-27.91481 0.63414,-16.0695 0.54142,-20.42967 -0.46019,-21.63988 -1.63128,-1.97104 -1.58992,-6.10008 0.12014,-11.99017 0.75596,-2.60383 1.83596,-7.43424 2.4,-10.73424 0.56404,-3.3 1.45277,-8.484 1.97497,-11.52 0.52219,-3.036 1.36685,-12.19505 1.87699,-20.35346 1.06071,-16.96287 1.8004,-18.75486 8.56625,-20.75257 l 4.12987,-1.2194 1.35871,3.25187 c 0.74731,1.78854 1.35873,3.97078 1.35873,4.84942 0,0.87863 0.8792,3.02008 1.95377,4.75878 1.07457,1.7387 2.60164,5.67768 3.39349,8.75331 0.79184,3.07563 2.65237,7.32005 4.1345,9.43205 3.7806,5.3873 7.79824,14.29 7.79824,17.28017 0,2.99923 1.9902,9.82359 5.73925,19.67983 1.50628,3.96 3.00488,8.712 3.33022,10.56 0.32534,1.848 1.21154,6.89882 1.96934,11.22405 1.69477,9.67314 2.06875,32.46305 0.56249,34.27798 -0.78669,0.94791 -0.68759,1.99653 0.3826,4.04861 0.79435,1.52315 1.44693,4.14786 1.45019,5.8327 0.007,3.3952 1.67831,5.11247 2.97854,3.05966 0.46089,-0.72766 0.84709,-6.075 0.85823,-11.883 0.0111,-5.808 0.48791,-13.152 1.05948,-16.32 0.57157,-3.168 1.20195,-20.06473 1.40086,-37.54829 0.20151,-17.71361 0.81892,-33.82877 1.39443,-36.39681 0.56804,-2.5347 1.46105,-9.12835 1.98447,-14.65255 0.95869,-10.11813 1.57208,-12.26739 4.27139,-14.9667 1.84353,-1.84353 4.29851,-1.00127 4.29851,1.47473 0,1.02574 0.63436,3.09168 1.40969,4.59101 0.77534,1.49933 1.36885,3.96187 1.31893,5.47233 -0.19953,6.03706 1.31912,15.7979 4.16134,26.74628 2.78642,10.7334 2.99242,12.66712 3.01708,28.32 0.0146,9.24 -0.24127,18.528 -0.56849,20.64 -0.89733,5.79186 -2.42582,13.03943 -3.54171,16.79366 -1.20163,4.04262 -1.2368,16.11967 -0.0643,22.08634 0.77907,3.96469 0.49004,5.12731 -3.51427,14.13578 -2.39973,5.39867 -4.85255,10.20234 -5.45069,10.67482 -2.60226,2.0555 -7.7793,2.07728 -11.16756,0.0469 z m -41.62667,-13.0976 c -0.12593,-1.58677 -1.37634,-3.07282 -2.61289,-3.1053 -0.30777,-0.008 -0.45177,0.9573 -0.32,2.1453 0.31155,2.80909 0.20055,2.64 1.73289,2.64 0.73334,0 1.27334,-0.756 1.2,-1.68 z m 36.19795,-2.6814 c -0.31267,-0.81478 -0.77437,-1.27552 -1.026,-1.02387 -0.25165,0.25164 -0.17278,0.91827 0.17524,1.4814 0.94661,1.53164 1.49989,1.23409 0.85076,-0.45753 z m -41.61128,-2.78194 c 0,-0.23284 -0.432,-0.69034 -0.96,-1.01666 -0.528,-0.32632 -0.96,-0.13582 -0.96,0.42334 0,0.55916 0.432,1.01666 0.96,1.01666 0.528,0 0.96,-0.1905 0.96,-0.42334 z m 40.512,-1.68866 c -0.616,-0.616 -1.43868,-0.80131 -1.8282,-0.4118 -0.38951,0.38951 -0.0852,1.09322 0.6762,1.5638 1.79289,1.10806 2.60247,0.29847 1.152,-1.152 z m -36.192,-69.888 c -0.32632,-0.528 -0.99982,-0.96 -1.49666,-0.96 -0.49684,0 -0.90334,0.432 -0.90334,0.96 0,0.528 0.6735,0.96 1.49666,0.96 0.82316,0 1.22966,-0.432 0.90334,-0.96 z m 60,-27.84 c 0,-0.528 -0.432,-0.96 -0.96,-0.96 -0.528,0 -0.96,0.432 -0.96,0.96 0,0.528 0.432,0.96 0.96,0.96 0.528,0 0.96,-0.432 0.96,-0.96 z"
           id="path1306" />
        <path
           style="fill:#000000;stroke-width:0.96"
           d="m 196.05735,635.80958 c -9.71212,-4.12215 -10.39214,-5.82594 -9.52924,-23.87538 0.58379,-12.21123 3.76362,-34.84981 5.02964,-35.80821 0.36278,-0.27462 0.66466,-6.33132 0.67084,-13.45932 0.006,-7.128 0.57816,-17.496 1.27107,-23.04 0.6929,-5.544 1.63929,-14.616 2.10308,-20.16 0.4638,-5.544 1.2847,-11.55037 1.82422,-13.34749 0.53953,-1.79712 1.05675,-5.79312 1.14937,-8.88 0.0926,-3.08688 0.47573,-5.61251 0.85134,-5.61251 0.37561,0 0.23936,-1.66187 -0.30279,-3.69304 -0.54215,-2.03117 -0.70476,-4.42524 -0.36136,-5.32015 0.90122,-2.34853 5.68443,-4.06711 10.13771,-3.64242 3.06427,0.29223 3.90756,0.78724 4.14189,2.43127 0.21763,1.52689 0.85658,1.98615 2.45423,1.76399 1.188,-0.16518 2.16,0.19314 2.16,0.79629 0,0.71903 0.99163,0.87882 2.88,0.46406 1.71957,-0.37768 2.88,-0.24108 2.88,0.33903 0,0.53437 0.756,1.22448 1.68,1.53358 1.4545,0.48657 5.04,6.58193 5.04,8.56801 0,0.38038 1.56381,3.13624 3.47512,6.1241 1.91132,2.98788 4.52529,9.05486 5.80882,13.48219 1.28352,4.42731 3.17572,10.18593 4.20487,12.79692 1.02915,2.61099 1.87119,6.22705 1.87119,8.0357 0,3.06433 2.77898,12.26938 4.85072,16.06744 0.5001,0.91684 0.91724,3.72484 0.92697,6.24 0.0185,4.78938 2.42595,19.89033 3.42994,21.51481 0.32052,0.51862 0.76579,6.42288 0.9895,13.12058 0.2237,6.6977 0.8832,15.63364 1.46555,19.85764 1.7018,12.34371 1.53462,14.85749 -1.13168,17.01653 -3.08795,2.50046 -8.10661,1.696 -11.64983,-1.86739 -4.02753,-4.05046 -5.53111,-11.70313 -5.8266,-29.65518 l -0.25457,-15.46605 -12.79367,-1.66028 c -7.03652,-0.91316 -12.98958,-1.46438 -13.22901,-1.22495 -0.23943,0.23943 -0.83379,4.70628 -1.32079,9.92633 -0.48701,5.22005 -1.31293,13.16299 -1.8354,17.65099 -0.52246,4.488 -1.24435,12.696 -1.60418,18.24 -0.35984,5.544 -1.08576,10.62 -1.61315,11.28 -1.30689,1.6355 -5.22918,1.4215 -9.8438,-0.53709 z m 26.03596,-71.63136 c 3.63223,-0.16402 8.64302,-0.35522 11.13511,-0.42489 l 4.53106,-0.12666 -0.36703,-11.76 c -0.54133,-17.34464 -3.9641,-28.49985 -12.19738,-39.75265 -6.97115,-9.52779 -8.49135,-10.58643 -8.51169,-5.92735 -0.008,1.76 -0.7094,5.144 -1.55936,7.52 -1.35057,3.77535 -2.94248,23.64456 -3.53809,44.16 -0.15342,5.28429 0.75346,7.8185 2.55104,7.1287 0.74376,-0.28541 4.32412,-0.65313 7.95634,-0.81715 z m -10.67596,-67.75155 c 0.32632,-0.528 0.13582,-0.96 -0.42334,-0.96 -0.55916,0 -1.01666,0.432 -1.01666,0.96 0,0.528 0.1905,0.96 0.42334,0.96 0.23284,0 0.69034,-0.432 1.01666,-0.96 z m -4.8068,-2.86901 c 0.33633,-0.54418 -0.049,-0.70512 -0.90334,-0.37729 -0.96558,0.37053 -1.48986,0.0288 -1.48986,-0.97099 0,-0.8485 -0.71495,-1.54271 -1.58879,-1.54271 -1.42879,0 -1.4138,0.19335 0.14879,1.92 1.92846,2.13092 2.95553,2.39109 3.8332,0.97099 z m 12.9668,-0.97099 c -0.56515,-1.056 -1.55235,-1.91339 -2.19377,-1.9053 -0.73262,0.01 -0.63083,0.36071 0.27377,0.9453 0.792,0.51183 1.008,0.94383 0.48,0.96 -0.528,0.0161 -0.312,0.44817 0.48,0.96 2.02393,1.30796 2.12154,1.21036 0.96,-0.96 z"
           id="path1304" />
      </g>
      <g
         id="g1348"
         transform="matrix(1.4428093,0,0,1.4428093,-564.19676,-333.92834)">
        <path
           style="fill:#000000;stroke-width:0.96"
           d="m 582.45735,629.99843 c -1.32,-0.39189 -4.56,-1.33787 -7.2,-2.10215 -3.14463,-0.91038 -6.1254,-2.7139 -8.64323,-5.22961 -4.62019,-4.61631 -11.34801,-14.55975 -10.6335,-15.71586 0.2813,-0.45515 -0.3461,-1.60361 -1.39421,-2.55213 -1.04811,-0.94852 -2.41739,-3.49026 -3.04284,-5.6483 -0.62545,-2.15804 -1.66724,-4.78771 -2.31508,-5.84371 -0.64785,-1.056 -2.32858,-6.77377 -3.73496,-12.70615 -2.12531,-8.96495 -2.58211,-13.26039 -2.70546,-25.44 -0.0922,-9.09719 0.3298,-16.83801 1.11272,-20.41385 1.47254,-6.7255 7.27808,-24.47062 9.21557,-28.16815 1.87106,-3.57075 6.69931,-7.93261 13.841,-12.50407 16.10113,-10.30647 28.58344,-10.37039 40.39445,-0.20686 l 3.29447,2.83492 -2.81447,0.55738 c -7.9477,1.57395 -11.55982,2.70892 -17.00604,5.3435 -6.01193,2.90826 -13.61416,7.87752 -16.12961,10.54328 -1.71446,1.8169 -4.93696,8.43556 -7.62761,15.66624 -1.14329,3.07243 -2.26461,5.40035 -2.49181,5.17314 -0.22722,-0.2272 0.0431,-1.61292 0.60061,-3.07938 1.20687,-3.17431 0.76558,-3.9992 -1.00083,-1.87081 -0.70093,0.84458 -1.39301,3.33901 -1.53795,5.5432 -0.14494,2.20418 -0.029,3.46761 0.25763,2.80761 0.28663,-0.66 0.87166,-1.2 1.30005,-1.2 1.23686,0 -0.55741,6.47565 -2.26833,8.18657 -1.04659,1.04659 -1.55057,3.24446 -1.55057,6.762 0,4.59679 0.9733,6.61814 2.16266,4.49143 0.22146,-0.396 0.25562,-0.13986 0.0759,0.56918 -0.17972,0.70906 -0.58775,2.32906 -0.90673,3.6 -0.38982,1.55317 -0.17094,2.31082 0.66757,2.31082 0.82401,0 0.69707,0.4074 -0.37388,1.2 -1.33234,0.98604 -1.48115,1.97028 -0.83461,5.52 0.50482,2.77165 1.23508,4.2197 2.03749,4.04016 0.86072,-0.1926 1.10523,0.48086 0.78424,2.16 -0.25652,1.34191 -0.0836,2.43984 0.38423,2.43984 0.99676,0 3.0017,4.84142 2.29684,5.54628 -0.264,0.264 -0.94015,-0.73026 -1.50253,-2.20946 -0.77206,-2.03067 -1.29363,-2.41838 -2.12926,-1.58276 -0.83561,0.83562 -0.70929,1.9401 0.51568,4.50889 0.89232,1.87121 1.62239,4.07246 1.62239,4.89168 0,2.6869 9.60973,20.26611 13.48551,24.66923 3.41351,3.87795 8.67061,6.98002 9.84272,5.80791 0.24829,-0.24829 -1.87499,-2.65168 -4.71839,-5.34086 -4.87899,-4.61432 -6.16866,-6.53091 -4.39467,-6.53091 0.42636,0 2.16577,1.97282 3.86535,4.38404 3.51266,4.98345 11.58922,9.3006 17.67641,9.44854 1.97832,0.0481 3.59832,0.41018 3.6,0.80466 0.002,0.39449 1.40704,1.29355 3.12304,1.9979 l 3.12,1.28065 -5.04,0.67517 c -2.772,0.37134 -5.04,1.02294 -5.04,1.44801 0,2.3736 -13.17517,4.6365 -18.24,3.13279 z M 551.55194,525.68127 c -0.29558,-0.29558 -0.83237,0.23722 -1.19288,1.184 -0.52097,1.36819 -0.41071,1.47845 0.53741,0.5374 0.65608,-0.6512 0.95104,-1.42583 0.65547,-1.7214 z m 26.10541,-25.8946 c 0,-2.45102 -1.31028,-3.20319 -2.42842,-1.39403 -0.79858,1.29215 0.14986,3.79403 1.4383,3.79403 0.54456,0 0.99012,-1.08 0.99012,-2.4 z"
           id="path1322" />
        <path
           style="fill:#000000;stroke-width:0.96"
           d="m 665.60573,632.60448 c -5.21287,-0.77366 -8.37485,-3.30853 -15.29021,-12.25774 -2.59892,-3.36326 -3.59432,-5.34123 -2.81817,-5.6 0.66,-0.22003 1.2,-0.84897 1.2,-1.39762 0,-0.63024 -0.49876,-0.58361 -1.35453,0.12662 -1.57422,1.30648 -3.0219,-0.20445 -1.9138,-1.9974 0.39401,-0.63752 0.26623,-0.84952 -0.30081,-0.49907 -1.05584,0.65255 -5.17234,-7.83855 -6.89999,-14.2326 -0.57065,-2.112 -1.2738,-7.944 -1.56256,-12.96 -0.28877,-5.016 -0.73062,-10.75092 -0.9819,-12.74429 -0.58971,-4.67804 1.8248,-5.99859 4.6365,-2.5358 1.59839,1.96853 1.8303,2.04092 1.53047,0.47776 -0.19436,-1.01327 -1.59765,-2.53175 -3.11842,-3.3744 -1.52077,-0.84264 -2.76716,-1.95759 -2.76975,-2.47767 -0.003,-0.52008 0.27646,-5.57501 0.62011,-11.23317 1.31523,-21.65495 7.24238,-40.74816 17.22046,-55.47243 3.63237,-5.36014 4.38003,-5.90824 7.35698,-5.39327 1.31052,0.2267 3.64946,-0.24284 5.19763,-1.04343 2.09686,-1.08433 4.27856,-1.29003 8.55307,-0.80643 5.05332,0.57172 6.18032,1.10935 9.44237,4.5045 2.03729,2.12042 3.70417,4.48241 3.70417,5.24888 0,0.76647 1.08,3.52486 2.4,6.12975 1.32,2.60489 2.4,5.73025 2.4,6.94524 0,1.21498 1.11781,3.85408 2.48404,5.86464 2.29736,3.38088 2.60965,3.54192 4.15559,2.14286 0.91935,-0.832 2.11304,-1.51274 2.65262,-1.51274 0.5396,0 4.70361,-3.65609 9.25337,-8.12465 11.90485,-11.69239 16.9722,-13.79597 19.16375,-7.95535 0.3467,0.924 1.07593,1.68 1.62051,1.68 1.25835,0 1.30987,9.28907 0.0558,10.06412 -0.51387,0.31759 -1.6838,2.17909 -2.59984,4.13666 -2.62678,5.61343 -10.73777,12.87282 -18.87556,16.89377 -5.27004,2.60398 -7.35029,4.14317 -7.35029,5.43853 0,1.1532 -0.48558,1.62032 -1.34251,1.2915 -0.94674,-0.36331 -1.30049,0.18734 -1.2,1.86787 0.0991,1.65778 0.47361,2.10846 1.2304,1.4808 1.64124,-1.36119 2.29413,1.25523 3.01378,12.0773 0.84243,12.6687 0.5587,23.14826 -0.82634,30.52032 -0.61887,3.29402 -1.49355,9.01313 -1.94373,12.70913 -0.45018,3.696 -0.97434,7.8 -1.1648,9.12 -0.19044,1.32 -0.41389,3.804 -0.49654,5.52 -0.0827,1.716 -0.97968,3.94942 -1.99342,4.96316 -1.01374,1.01374 -1.98574,2.84533 -2.16,4.07019 -0.17671,1.24206 -1.10088,2.37655 -2.08954,2.56508 -1.39184,0.26543 -1.64118,-0.0763 -1.16056,-1.59062 0.48642,-1.53257 0.25172,-1.83444 -1.14275,-1.46977 -1.03494,0.27064 -1.83732,1.45472 -1.95579,2.88619 -0.26211,3.16706 -0.73208,3.83779 -3.12811,4.46437 -1.55497,0.40663 -1.76268,0.24666 -0.95045,-0.73201 1.40021,-1.68716 -1.14976,-2.67037 -4.05797,-1.56467 -1.18342,0.44993 -2.58367,0.93062 -3.11167,1.06819 -0.528,0.13758 -1.98439,0.92134 -3.23642,1.7417 -2.70787,1.77427 -3.92422,1.89186 -10.09519,0.976 z m -3.46838,-11.74585 c 0,-0.20241 -0.864,-0.59397 -1.92,-0.87012 -1.056,-0.27615 -1.92,-0.11053 -1.92,0.36804 0,0.47856 0.864,0.87012 1.92,0.87012 1.056,0 1.92,-0.16562 1.92,-0.36804 z m 3.84,-0.59196 c 0,-0.528 -0.432,-0.96 -0.96,-0.96 -0.528,0 -0.96,0.432 -0.96,0.96 0,0.528 0.432,0.96 0.96,0.96 0.528,0 0.96,-0.432 0.96,-0.96 z m -12.74,-0.58 c -0.319,-0.319 -1.147,-0.3531 -1.84,-0.0757 -0.76582,0.30645 -0.53835,0.53394 0.58,0.58 1.012,0.0417 1.579,-0.18522 1.26,-0.50421 z m 38.66,-0.38 c 0,-0.528 -0.432,-0.96 -0.96,-0.96 -0.528,0 -0.96,0.432 -0.96,0.96 0,0.528 0.432,0.96 0.96,0.96 0.528,0 0.96,-0.432 0.96,-0.96 z m 5.72176,-2.35393 c 0.67096,-0.80845 0.87348,-2.28682 0.48216,-3.51973 l -0.67469,-2.1258 -1.78327,2.31974 c -0.9808,1.27584 -1.79287,2.85972 -1.80461,3.51972 -0.0291,1.63791 2.36192,1.51525 3.78041,-0.19393 z m -44.84176,-1.16186 c -0.66,-0.26631 -1.74,-0.26631 -2.4,0 -0.66,0.26631 -0.12,0.48422 1.2,0.48422 1.32,0 1.86,-0.21791 1.2,-0.48422 z m 25.19073,-5.50179 c 7.31622,-12.48418 10.70365,-26.25327 11.48846,-46.6978 0.33368,-8.69254 0.78493,-17.10062 1.00277,-18.68462 0.35716,-2.59697 -0.11982,-3.2102 -4.8536,-6.24 -4.44984,-2.84806 -12.82113,-11.14418 -20.17346,-19.99228 -2.4834,-2.98863 -5.38753,-4.6146 -4.6064,-2.57905 0.42181,1.09925 0.11178,1.32554 -1.22161,0.89166 -1.29146,-0.42024 -1.43532,-0.32935 -0.51886,0.32781 1.04551,0.7497 1.0034,2.19038 -0.24,8.21008 -0.82942,4.01546 -1.50803,8.61485 -1.50803,10.22088 0,1.60603 -0.70068,6.91624 -1.55706,11.80048 -3.2567,18.57393 -0.0404,48.44906 6.32461,58.74792 2.80297,4.5353 7.61028,8.18883 10.79199,8.20185 2.06149,0.009 3.1111,-0.86228 5.07119,-4.20693 z m -26.39073,1.33758 c 0,-0.528 -0.4575,-0.96 -1.01666,-0.96 -0.55916,0 -0.74966,0.432 -0.42334,0.96 0.32632,0.528 0.78382,0.96 1.01666,0.96 0.23284,0 0.42334,-0.432 0.42334,-0.96 z m -6.72,-4.26334 c 0,-0.23284 -0.432,-0.69034 -0.96,-1.01666 -0.528,-0.32632 -0.96,-0.13582 -0.96,0.42334 0,0.55916 0.432,1.01666 0.96,1.01666 0.528,0 0.96,-0.1905 0.96,-0.42334 z m 69.12,-77.33666 c 0,-0.528 -0.432,-0.96 -0.96,-0.96 -0.528,0 -0.96,0.432 -0.96,0.96 0,0.528 0.432,0.96 0.96,0.96 0.528,0 0.96,-0.432 0.96,-0.96 z m 4.32,-0.96 c -0.32632,-0.528 -1.02531,-0.96 -1.55331,-0.96 -0.528,0 -0.69301,0.432 -0.36669,0.96 0.32632,0.528 1.02531,0.96 1.55331,0.96 0.528,0 0.69301,-0.432 0.36669,-0.96 z m -28.913,-3.15866 c 1.52885,-1.11792 1.60222,-2.07707 0.75271,-9.84 -1.05099,-9.60406 -2.62193,-16.54121 -4.16753,-18.40354 -0.565,-0.68079 -2.37838,-1.23574 -4.02972,-1.23321 -3.82441,0.006 -10.00015,5.46386 -10.81986,9.56241 -0.32043,1.60215 -1.1766,2.913 -1.9026,2.913 -0.726,0 -1.32,0.4575 -1.32,1.01666 0,0.55916 0.41032,0.76306 0.91184,0.45311 0.5015,-0.30996 1.41403,0.42056 2.02782,1.62334 1.73293,3.39582 13.62692,15.14689 15.33111,15.14689 0.83724,0 2.28455,-0.5574 3.21623,-1.23866 z m 33.233,-4.52134 c 1.75485,-1.13407 0.23913,-1.13407 -2.4,0 -1.26599,0.54401 -1.4295,0.84302 -0.48,0.87782 0.792,0.029 2.088,-0.36599 2.88,-0.87782 z m 2.2863,-3.40986 c 0.32783,-0.85433 0.16689,-1.23967 -0.37729,-0.90334 -0.52195,0.32258 -0.94901,0.99302 -0.94901,1.48986 0,1.38089 0.6881,1.0766 1.3263,-0.58652 z"
           id="path1318" />
        <path
           style="fill:#000000;stroke-width:0.96"
           d="m 920.70391,630.57721 c -7.96885,-8.32878 -9.42822,-11.55601 -11.17431,-24.71054 -1.30297,-9.8163 -1.43027,-14.62044 -0.69949,-26.4 0.49133,-7.92 1.1818,-19.152 1.53436,-24.96 0.42191,-6.95042 1.75053,-14.98764 3.88695,-23.51327 1.78526,-7.1243 3.25106,-14.2523 3.25733,-15.84 0.007,-1.58771 0.64914,-5.26273 1.4286,-8.16673 0.77946,-2.904 1.42234,-7.7887 1.4286,-10.85489 0.0119,-5.83655 1.61537,-13.79648 2.94462,-14.618 1.06728,-0.65962 10.70233,3.69791 12.20742,5.52089 0.92902,1.12526 0.96884,2.13705 0.16669,4.23523 -0.57966,1.51622 -1.37125,7.79806 -1.75907,13.95963 -0.43159,6.85696 -1.1933,11.79107 -1.96353,12.71914 -1.01123,1.21846 -1.02702,2.07482 -0.0804,4.36015 0.78736,1.90085 0.96308,5.00491 0.52991,9.36086 -0.49607,4.98839 -0.0525,9.98064 1.89108,21.28383 1.39654,8.12178 2.27434,15.82199 1.95067,17.11159 -0.32367,1.2896 -0.16719,3.71652 0.34771,5.39315 0.51492,1.67663 1.35617,8.44842 1.86944,15.04842 0.74087,9.52656 0.66906,12.59363 -0.34836,14.88 -0.70487,1.584 -1.56831,4.30305 -1.91876,6.04233 -0.35043,1.73928 -1.49971,3.96591 -2.55394,4.94808 -1.82121,1.69671 -1.83633,1.90855 -0.30317,4.24844 1.57172,2.39876 1.53895,2.53198 -1.26276,5.13192 -1.58201,1.46808 -3.02707,3.48161 -3.21125,4.47453 -0.18419,0.99292 -1.22112,2.39266 -2.30429,3.11054 -1.79559,1.19005 -2.31312,0.94601 -5.86404,-2.7653 z m 11.19344,-15.05388 c 0,-0.49684 -0.432,-1.17034 -0.96,-1.49666 -0.528,-0.32632 -0.96,0.0802 -0.96,0.90334 0,0.82316 0.432,1.49666 0.96,1.49666 0.528,0 0.96,-0.4065 0.96,-0.90334 z m 1.92,-24.48 c 0,-0.76084 -0.42706,-1.64728 -0.94901,-1.96986 -0.55064,-0.34032 -0.70116,0.0593 -0.35857,0.95211 0.48264,1.25775 0.0863,1.4394 -2.171,0.9951 -2.22486,-0.43791 -2.38835,-0.36723 -0.84142,0.36377 2.83017,1.33736 4.32,1.21972 4.32,-0.34112 z m -4.45284,-3.89666 c 0.30392,-0.792 0.18036,-1.44 -0.27458,-1.44 -0.45494,0 -1.07582,0.648 -1.37974,1.44 -0.30392,0.792 -0.18036,1.44 0.27458,1.44 0.45494,0 1.07582,-0.648 1.37974,-1.44 z m -13.78716,-2.45666 c 0,-1.02484 0.648,-1.86334 1.44,-1.86334 2.18925,0 1.7081,-1.30874 -0.93105,-2.53248 -2.91583,-1.35204 -5.96359,0.40182 -5.0112,2.88373 0.33535,0.8739 0.58464,1.86007 0.55399,2.19149 -0.0863,0.93276 2.3239,2.18786 3.18242,1.65726 0.42121,-0.26032 0.76584,-1.31182 0.76584,-2.33666 z m 10.35056,-0.0917 c -0.34157,-1.02468 -4.59056,-3.14366 -4.59056,-2.28929 0,0.20927 0.67885,1.05935 1.50857,1.88906 1.76136,1.76136 3.61598,2.00221 3.08199,0.40025 z m -11.31056,-8.5483 c 0,-0.55916 -0.54,-0.69224 -1.2,-0.29572 -0.79402,0.47703 -0.74773,0.16356 0.1368,-0.92654 0.73524,-0.90612 1.08799,-1.8963 0.78387,-2.20041 -0.87289,-0.87289 -2.32181,0.38927 -2.87491,2.50437 -0.37664,1.44023 -0.0381,1.93496 1.32412,1.93496 1.00656,0 1.83012,-0.4575 1.83012,-1.01666 z"
           id="path1316" />
        <path
           style="fill:#000000;stroke-width:0.96"
           d="m 834.21735,636.0047 c -0.66,-0.29592 -1.2,-1.09964 -1.2,-1.78606 0,-0.68642 -0.90747,-1.48534 -2.0166,-1.77539 -1.202,-0.31433 -1.74243,-0.97093 -1.33789,-1.62549 0.37328,-0.60398 -0.23125,-1.94588 -1.34341,-2.98201 -1.13728,-1.05953 -2.0221,-3.07434 -2.0221,-4.60445 0,-1.49631 -0.92508,-4.81186 -2.05573,-7.3679 -1.8965,-4.28735 -2.00558,-5.64701 -1.40807,-17.55283 0.48471,-9.65839 0.29721,-14.61873 -0.7452,-19.7147 -2.95758,-14.45847 -3.45806,-24.46154 -2.57414,-51.4492 0.59482,-18.16084 1.33902,-28.34744 2.38459,-32.64 0.83595,-3.432 1.74252,-7.20675 2.01459,-8.38833 0.29748,-1.29189 2.09523,-2.96486 4.50959,-4.19658 3.54371,-1.80786 4.95998,-1.97157 12.0674,-1.39488 11.61933,0.94279 19.02525,3.5665 29.11239,10.31367 8.01147,5.35878 9.00246,6.37039 11.52844,11.76828 4.91129,10.49518 5.50314,25.83258 1.37264,35.57094 -1.02697,2.42126 -8.13468,9.69753 -14.39146,14.73275 -1.88485,1.51685 -1.45505,3.626 0.66336,3.25531 2.10211,-0.36785 6.7537,5.41582 5.91396,7.35326 -0.36845,0.85007 -0.61774,2.30158 -0.55399,3.22558 0.0638,0.924 0.0867,3.732 0.0509,6.24 -0.0357,2.508 -0.0449,6.504 -0.0204,8.88 0.0808,7.8414 -1.94698,23.4242 -3.80324,29.2264 -1.00409,3.13853 -1.83139,6.37853 -1.83844,7.2 -0.0168,1.95882 -11.41088,11.24713 -17.9742,14.6524 -4.93291,2.55935 -13.76022,4.21274 -16.33297,3.05923 z m 12.05011,-8.76683 c -1.3936,-1.67919 -3.01438,-1.52092 -2.34295,0.2288 0.34257,0.89272 -0.005,1.44 -0.91394,1.44 -0.8066,0 -1.22474,0.39122 -0.92923,0.86938 0.30936,0.50055 1.5245,0.40348 2.86432,-0.22881 1.72396,-0.81357 2.0665,-1.41205 1.3218,-2.30937 z m -16.13011,-2.59454 c 0,-0.23284 -0.432,-0.69034 -0.96,-1.01666 -0.528,-0.32632 -0.96,-0.13582 -0.96,0.42334 0,0.55916 0.432,1.01666 0.96,1.01666 0.528,0 0.96,-0.1905 0.96,-0.42334 z m 14.23918,-2.06891 c -0.84273,-0.84273 -2.3393,-1.34053 -3.32571,-1.10622 -1.56808,0.37248 -1.49186,0.55739 0.60653,1.47139 3.483,1.51711 4.46903,1.38468 2.71918,-0.36517 z m -2.23918,-3.26775 c -0.32632,-0.528 -1.02531,-0.96 -1.55331,-0.96 -0.528,0 -0.69301,0.432 -0.36669,0.96 0.32632,0.528 1.02531,0.96 1.55331,0.96 0.528,0 0.69301,-0.432 0.36669,-0.96 z m 5.28,-5.76 c 0,-0.528 -0.432,-0.96 -0.96,-0.96 -0.528,0 -0.96,0.432 -0.96,0.96 0,0.528 0.432,0.96 0.96,0.96 0.528,0 0.96,-0.432 0.96,-0.96 z m 0.63873,-4.29181 c 6.80619,-5.19693 11.21806,-15.41221 15.23567,-35.27694 1.40899,-6.96664 1.48028,-8.62454 0.42551,-9.89546 -1.98532,-2.39217 -7.64054,-4.42363 -13.53829,-4.86323 -6.20658,-0.46261 -7.74509,0.63716 -8.05603,5.7587 -0.1066,1.75578 -0.47365,3.64513 -0.81568,4.19855 -0.34203,0.55341 -0.20814,1.1511 0.29754,1.3282 0.99594,0.34879 -0.35338,28.24577 -1.72001,35.56101 -0.42691,2.2851 -0.59872,4.68714 -0.38181,5.33786 0.70314,2.10941 4.09108,1.25831 8.5531,-2.14869 z m 12.80127,-50.42819 c 0,-1.2028 -1.01879,-1.2028 -2.88,0 -1.16444,0.75252 -1.02666,0.93341 0.72,0.9453 1.188,0.008 2.16,-0.4173 2.16,-0.9453 z m -5.62919,-26.02153 c 11.44337,-7.67577 14.13306,-13.61108 11.4363,-25.23631 -1.88015,-8.10496 -20.06527,-18.65192 -23.76328,-13.78216 -0.54903,0.723 -0.62907,5.39754 -0.20133,11.76 0.39045,5.808 0.37514,15.744 -0.0341,22.08 -0.40917,6.336 -0.56124,11.84517 -0.33795,12.24259 0.53056,0.94428 2.87484,-0.33944 12.90029,-7.06412 z m -17.41081,-29.65847 c 0,-0.528 -0.4575,-0.96 -1.01666,-0.96 -0.55916,0 -0.74966,0.432 -0.42334,0.96 0.32632,0.528 0.78382,0.96 1.01666,0.96 0.23284,0 0.42334,-0.432 0.42334,-0.96 z m -8.201,-8.57366 c 0.30378,-0.49152 0.11327,-1.16502 -0.42334,-1.49666 -0.53661,-0.33164 -0.97566,0.0705 -0.97566,0.89366 0,1.68627 0.57606,1.93455 1.399,0.603 z"
           id="path1310" />
        <path
           style="fill:#000000;stroke-width:0.96"
           d="m 782.70441,635.43509 c -3.03106,-6.59238 -7.41284,-21.30564 -10.66417,-35.80842 -3.82449,-17.05951 -4.99998,-20.18049 -10.81294,-28.7088 -2.91329,-4.27416 -6.50911,-10.46864 -7.99071,-13.7655 -1.48161,-3.29686 -3.57704,-6.94232 -4.65653,-8.10102 l -1.96271,-2.10672 v 2.74543 c 0,1.50999 0.67595,3.49234 1.50209,4.40522 1.51763,1.67696 1.70092,2.87785 3.21315,21.05139 0.89922,10.8065 2.31019,21.58599 4.8451,37.01532 l 1.58629,9.6553 -2.21331,1.66951 c -1.21733,0.91823 -2.21332,2.64677 -2.21332,3.84121 0,5.61471 -5.95801,7.4779 -6.55688,2.05045 -0.17428,-1.57949 -1.20559,-3.82678 -2.29181,-4.99399 -1.69945,-1.82614 -2.09094,-4.01588 -2.80639,-15.69694 -0.45729,-7.46611 -1.10144,-14.01163 -1.43146,-14.5456 -0.70792,-1.14545 -2.59685,-34.32447 -2.5844,-45.39526 0.0191,-16.99888 0.38243,-24.71884 1.38293,-29.38404 0.88042,-4.10522 0.78752,-5.47675 -0.57571,-8.49985 -1.57736,-3.49798 -1.55195,-3.83768 0.85757,-11.46516 3.5138,-11.12315 4.81212,-13.2058 10.4522,-16.7665 11.89378,-7.50876 16.97502,-8.00007 25.49335,-2.46498 7.08038,4.60074 8.75644,7.09639 12.6094,18.77541 3.54613,10.74897 3.61361,15.00379 0.3686,23.24138 -5.5257,14.02724 -7.02914,16.75889 -8.53558,15.50865 -1.63626,-1.35798 -2.54978,0.16374 -2.02615,3.37509 0.36605,2.24488 -1.29171,5.28 -2.88389,5.28 -0.60849,0 -1.35502,0.648 -1.65894,1.44 -0.30392,0.792 -1.21414,1.44 -2.02272,1.44 -1.96368,0 -1.86947,0.58986 0.82973,5.19572 1.26493,2.15842 2.45048,5.22038 2.63458,6.80434 0.18409,1.58397 2.31238,5.90394 4.72953,9.59994 7.72981,11.81946 11.45604,21.01811 11.45604,28.28063 0,1.89869 0.65323,4.38478 1.45164,5.52466 0.79839,1.13987 1.60652,3.28799 1.79583,4.7736 0.18931,1.48561 0.77225,3.78111 1.29541,5.10111 2.89244,7.29784 2.96147,8.33199 0.85973,12.87791 -1.2476,2.69848 -2.52162,4.23525 -3.27334,3.9484 -0.69278,-0.26436 -1.63062,0.58213 -2.14559,1.93663 -0.50317,1.32344 -1.56935,2.65741 -2.36927,2.96437 -0.79993,0.30696 -1.45441,1.13439 -1.45441,1.83874 0,3.28654 -2.11506,1.96861 -4.23294,-2.63763 z m 11.91294,-19.37646 c 0,-0.20241 -0.864,-0.59397 -1.92,-0.87012 -1.056,-0.27615 -1.92,-0.11053 -1.92,0.36804 0,0.47856 0.864,0.87012 1.92,0.87012 1.056,0 1.92,-0.16562 1.92,-0.36804 z m -50.83599,-74.42974 c -0.58937,-1.10122 -1.49832,-2.00222 -2.01992,-2.00222 -0.52159,0 -0.23188,1.09348 0.64382,2.42996 1.86154,2.84107 2.94524,2.50422 1.3761,-0.42774 z m 23.82795,-4.86912 c 1.87457,-0.0108 2.17713,-0.39092 1.72975,-2.1731 l -0.54222,-2.16 1.78414,2.16 c 0.98127,1.188 1.94515,2.16 2.14195,2.16 0.29343,0 0.23472,-3.21409 -0.10759,-5.88959 -0.0429,-0.33527 -1.20418,-1.34749 -2.58061,-2.24938 -1.86653,-1.22299 -2.77951,-1.3629 -3.59198,-0.55043 -0.81247,0.81247 -0.79991,1.26824 0.0494,1.79314 0.62632,0.3871 1.01155,1.5571 0.85606,2.60003 -0.24576,1.64841 -0.89751,1.85115 -4.98678,1.55132 l -4.70409,-0.3449 1.88225,2.08398 c 1.22707,1.35858 2.56371,1.90091 3.84,1.55801 1.07677,-0.28927 2.98013,-0.53187 4.22971,-0.53908 z m -8.51196,-4.8131 c 0,-0.528 -0.6225,-0.96 -1.38334,-0.96 -2.64675,0 -2.57466,-1.96342 0.11563,-3.14939 1.48924,-0.65649 2.79427,-1.62046 2.90007,-2.14212 0.10579,-0.52167 2.21096,-6.48411 4.67815,-13.24985 4.47059,-12.25965 4.48169,-12.3207 3.27646,-18 -1.44728,-6.81996 -2.69559,-7.17995 -8.78684,-2.53399 -5.62919,4.29352 -8.44449,9.49767 -8.46434,15.64656 -0.0116,3.60114 -0.50512,5.33405 -1.87105,6.5702 -2.09743,1.89815 -1.6481,4.55753 0.62281,3.6861 1.29312,-0.49621 1.39874,0.2683 0.80414,5.82063 -0.58355,5.44909 -0.46085,6.40956 0.8319,6.51186 2.94872,0.23335 3.35248,0.37207 4.54041,1.56 1.44436,1.44436 2.736,1.55767 2.736,0.24 z m -11.52,-27.84 c 0,-0.528 -0.4065,-0.96 -0.90334,-0.96 -0.49684,0 -1.17034,0.432 -1.49666,0.96 -0.32632,0.528 0.0802,0.96 0.90334,0.96 0.82316,0 1.49666,-0.432 1.49666,-0.96 z m 15.87948,-22.97613 c -0.34804,-0.56313 -1.0922,-1.02387 -1.65368,-1.02387 -0.63658,0 -0.56374,0.55083 0.19346,1.4632 1.31668,1.5865 2.49343,1.23245 1.46022,-0.43933 z"
           id="path1302" />
      </g>
      <g
         id="g1361"
         transform="matrix(1.4428093,0,0,1.4428093,-210.97832,-334.0199)">
        <path
           style="fill:#000000;stroke-width:0.96"
           d="m 611.01735,711.38977 c -1.92983,-1.12402 -2.25473,-5.68437 -0.528,-7.4111 0.6336,-0.6336 2.4912,-1.152 4.128,-1.152 3.48349,0 5.28,1.48457 5.28,4.36321 0,4.09863 -4.99654,6.46181 -8.88,4.19989 z"
           id="path1300" />
        <path
           style="fill:#000000;stroke-width:0.96"
           d="m 667.89735,735.46667 v -18.24 h 3.92988 c 3.12251,0 4.03302,0.39445 4.43196,1.92 0.62558,2.39224 0.68144,2.38908 4.23746,-0.24 3.40018,-2.51386 11.50004,-2.97883 15.41283,-0.88477 4.83606,2.58817 5.58787,5.43957 5.58787,21.19289 v 14.49188 h -4.8 -4.8 v -12.37365 c 0,-10.57536 -0.25619,-12.69002 -1.76276,-14.55056 -2.05706,-2.54036 -7.27896,-2.8455 -9.56551,-0.55895 -1.87384,1.87384 -2.94339,8.64454 -3.0145,19.08316 l -0.0572,8.4 h -4.8 -4.8 z"
           id="path1298" />
        <path
           style="fill:#000000;stroke-width:0.96"
           d="m 609.33735,735.46667 v -18.24 h 4.8 4.8 v 18.24 18.24 h -4.8 -4.8 z"
           id="path1296" />
        <path
           style="fill:#000000;stroke-width:0.96"
           d="m 576.45735,752.59088 c -2.28304,-0.83384 -2.64,-1.48667 -2.64,-4.82828 0,-3.74757 0.0796,-3.84265 2.64,-3.15368 9.44819,2.5424 13.97285,2.15199 14.465,-1.24814 0.25734,-1.77784 -0.82998,-2.64591 -6.95708,-5.5542 -8.1843,-3.88476 -10.14792,-6.02565 -10.14792,-11.06405 0,-7.76644 8.53415,-11.91895 19.83236,-9.64994 3.04022,0.61056 5.86609,1.44853 6.27973,1.86217 0.41363,0.41363 0.21661,2.17062 -0.43783,3.90442 -1.08756,2.88127 -1.43774,3.09092 -4.07207,2.43793 -1.5852,-0.39294 -4.8172,-0.74954 -7.18223,-0.79244 -3.36066,-0.061 -4.37191,0.28743 -4.62901,1.59479 -0.24813,1.26176 1.3982,2.46535 6.70005,4.89828 8.92088,4.09363 10.89734,6.25241 10.77693,11.77108 -0.10488,4.80646 -2.1088,7.62908 -6.83709,9.63035 -3.54886,1.50206 -13.89776,1.61359 -17.79084,0.19171 z"
           id="path1294" />
        <path
           style="fill:#000000;stroke-width:0.96"
           d="m 545.89437,752.78918 c -7.35559,-2.22912 -11.43703,-8.58216 -11.43703,-17.80251 0,-7.22629 2.73841,-13.0779 7.50811,-16.0438 4.84941,-3.01546 15.09713,-3.13242 19.00218,-0.21688 4.73944,3.53849 6.45885,6.74865 6.90291,12.88778 l 0.41757,5.7729 h -12.18008 -12.18008 l 0.65504,2.16 c 0.36026,1.188 1.57737,3.17214 2.70469,4.40919 1.85177,2.03205 2.65212,2.20404 8.28966,1.78147 3.43201,-0.25726 7.24155,-0.78751 8.46565,-1.17834 2.0972,-0.66958 2.20801,-0.49536 1.92,3.01855 -0.27035,3.29862 -0.69354,3.86141 -3.66564,4.87495 -3.78609,1.29111 -12.65302,1.47312 -16.40298,0.33669 z m 12.56297,-23.72692 c 0,-2.80019 -2.96609,-5.11559 -6.5532,-5.11559 -3.75849,0 -6.8868,2.24797 -6.8868,4.94879 0,1.55293 0.82816,1.77121 6.72,1.77121 5.63939,0 6.72,-0.258 6.72,-1.60441 z"
           id="path1292" />
        <path
           style="fill:#000000;stroke-width:0.96"
           d="m 487.41734,729.85352 v -24.14685 l 11.28,0.01 c 9.85744,0.009 11.89952,0.29784 16.19235,2.29669 8.22004,3.82747 11.89469,10.50874 11.87827,21.59718 -0.01,6.78206 -2.76201,14.37745 -6.36963,17.58009 -4.30117,3.81832 -10.62476,5.61227 -21.91599,6.21738 l -11.065,0.59277 z m 23.67454,12.80017 c 5.412,-3.54609 7.12782,-17.36753 2.93036,-23.60506 -2.48637,-3.69481 -7.82179,-5.91498 -13.13855,-5.46718 l -3.38635,0.28522 -0.26679,14.35783 c -0.14675,7.89679 -0.0295,14.97628 0.26059,15.73218 0.70053,1.82556 10.21747,0.91381 13.60074,-1.30299 z"
           id="path1290" />
        <path
           style="fill:#000000;stroke-width:0.96"
           d="m 425.49734,752.71592 c -10.15523,-3.28738 -12.72401,-15.57406 -4.77845,-22.85563 l 3.56223,-3.26453 -2.03189,-3.61525 c -2.58184,-4.59375 -2.64406,-10.47667 -0.14442,-13.65443 2.80219,-3.56242 6.86713,-4.87133 13.61301,-4.38338 5.16345,0.3735 6.24865,0.81182 8.64222,3.4907 4.67614,5.2335 3.63908,11.44916 -2.8642,17.1666 l -3.5185,3.09334 4.55052,4.56456 4.55054,4.56456 2.12,-5.01789 2.12,-5.0179 h 5.15417 c 4.90294,0 5.12161,0.10528 4.48629,2.16 -1.01999,3.2988 -4.30629,9.63658 -5.98855,11.54916 -1.39155,1.58208 -1.16907,2.04855 2.99185,6.27298 2.47234,2.51009 4.49518,4.87297 4.49518,5.25084 0,0.37786 -2.45616,0.68702 -5.45813,0.68702 -4.20555,0 -5.94554,-0.4579 -7.58204,-1.99531 -2.05592,-1.93144 -2.22667,-1.94217 -5.33421,-0.3352 -3.72922,1.92845 -14.39252,2.69712 -18.58562,1.33976 z m 14.62345,-8.43038 c 0.8248,-0.52391 -0.50297,-2.42056 -4.38127,-6.25839 -5.54984,-5.49193 -5.56948,-5.50139 -7.34345,-3.54118 -2.31951,2.56304 -2.31694,7.57891 0.005,9.27659 1.92041,1.40424 9.78043,1.75497 11.71997,0.52298 z m -2.66989,-26.35115 c 1.78495,-3.13106 0.11183,-5.50772 -3.87733,-5.50772 -3.9765,0 -5.25301,2.89864 -3.19055,7.24497 1.49347,3.14724 1.74677,3.28956 3.63974,2.04497 1.11902,-0.73574 2.66169,-2.43773 3.42814,-3.78222 z"
           id="path1288" />
        <path
           style="fill:#000000;stroke-width:0.96"
           d="m 378.93734,752.47917 c -4.30424,-2.15069 -5.75685,-6.7449 -5.75851,-18.2125 l -0.001,-10.32 h -2.4 c -3.41461,0 -3.163,-3.28074 0.41365,-5.39352 1.71865,-1.01523 3.43079,-3.27802 4.39941,-5.81428 1.4424,-3.77688 1.88228,-4.1522 4.86634,-4.1522 3.24812,0 3.2806,0.0427 3.2806,4.32 v 4.32 h 4.8 4.8 v 3.36 3.36 h -4.8 -4.8 v 9.96246 c 0,11.60554 0.61112,12.66963 6.68679,11.64315 l 3.87321,-0.65438 v 3.46815 c 0,2.83949 -0.44636,3.63785 -2.4625,4.40438 -3.40958,1.29633 -10.01893,1.14707 -12.8975,-0.29126 z"
           id="path1286" />
        <path
           style="fill:#000000;stroke-width:0.96"
           d="m 341.49735,735.46667 v -18.24 h 3.864 c 3.52533,0 3.91449,0.25242 4.44,2.88 0.6792,3.39601 1.34939,3.59218 3.03748,0.88912 1.45569,-2.33094 6.70592,-4.72912 10.35328,-4.72912 2.4199,0 2.52467,0.19229 1.96141,3.6 -0.32728,1.98 -0.5998,4.14 -0.60561,4.8 -0.006,0.69537 -1.24174,1.2 -2.93824,1.2 -1.61022,0 -4.1821,0.64869 -5.7153,1.44154 -3.62434,1.87422 -4.78479,6.11686 -4.79166,17.51846 l -0.005,8.88 h -4.8 -4.8 z"
           id="path1284" />
        <path
           style="fill:#000000;stroke-width:0.96"
           d="m 290.61735,753.12998 c 0,-0.31719 3.74477,-11.35126 8.32171,-24.52018 l 8.32172,-23.94348 6.22978,0.28017 6.22979,0.28018 7.95788,22.56 c 4.37684,12.408 7.98066,23.33858 8.0085,24.29017 0.0435,1.48638 -0.64891,1.68928 -4.91392,1.44 l -4.96454,-0.29017 -1.83546,-5.52 -1.83546,-5.52 h -8.8826 -8.88262 l -1.60142,5.76 -1.60142,5.76 h -5.27597 c -2.90178,0 -5.27597,-0.25951 -5.27597,-0.57669 z m 28.8,-20.21151 c 0,-1.26073 -5.13736,-18.11312 -5.73778,-18.82192 -0.57865,-0.68312 -5.78222,15.78454 -5.78222,18.29891 0,0.76704 1.92219,1.15121 5.76,1.15121 3.168,0 5.76,-0.28268 5.76,-0.6282 z"
           id="path1282" />
        <path
           style="fill:#000000;stroke-width:0.96"
           d="m 635.73735,769.09619 c -7.24128,-1.15914 -11.04,-4.72621 -11.04,-10.36676 0,-3.44119 3.51444,-7.90276 6.2251,-7.90276 1.25342,0 1.16236,-0.47343 -0.53176,-2.76485 -2.1567,-2.91709 -1.76024,-5.08387 1.41195,-7.71655 1.26634,-1.05097 1.13264,-1.47654 -1.05512,-3.35837 -1.98192,-1.70478 -2.59612,-3.25095 -2.94036,-7.40192 -0.38377,-4.62787 -0.13252,-5.60661 2.12925,-8.29457 3.55674,-4.22695 7.70159,-5.11383 20.49031,-4.38434 l 10.84939,0.61885 -0.28939,2.49088 c -0.20093,1.72968 -0.94119,2.58354 -2.42234,2.7941 -1.92876,0.27419 -2.07923,0.69527 -1.57169,4.39822 1.0963,7.99836 -3.43208,12.52011 -13.84051,13.82026 -3.9315,0.4911 -5.49483,1.09492 -5.49483,2.12233 0,1.12063 1.8316,1.56131 8.34081,2.00677 9.20354,0.62984 12.71361,2.20609 14.33963,6.4394 1.21402,3.16063 0.50807,8.20758 -1.59753,11.42113 -2.99909,4.57719 -14.08318,7.506 -23.00291,6.07818 z m 11.32706,-6.813 c 4.28394,-1.18962 6.52901,-4.70731 4.53654,-7.10809 -0.87964,-1.0599 -3.07311,-1.46843 -7.88426,-1.46843 -7.77206,0 -10.37934,1.07999 -10.37934,4.29934 0,4.60142 5.91854,6.44556 13.72706,4.27718 z m -1.24706,-28.73652 c 5.11942,-5.11942 -0.46159,-13.95444 -6.36958,-10.08338 -3.1433,2.05958 -3.22514,8.3458 -0.13681,10.50895 2.81982,1.97507 4.19575,1.88507 6.50639,-0.42557 z"
           id="path1025" />
      </g>
      <path
         style="fill:#000000;stroke-width:1.3851"
         d="m 236.85994,651.47434 c -11.44696,-6.0842 -14.57706,-15.36572 -6.48414,-19.22709 3.5525,-1.695 4.3918,-1.53998 9.31971,1.72115 9.4009,6.22123 15.53105,4.09209 21.3649,-7.42046 5.13391,-10.13128 10.39015,-11.0208 20.91322,-3.53917 8.62773,6.13409 11.11037,6.12645 14.05246,-0.0431 1.32304,-2.77445 3.67909,-5.22902 5.44443,-5.67209 5.08956,-1.2774 12.59882,2.08877 17.54174,7.86344 l 4.63143,5.41082 2.95867,-4.0018 c 6.24957,-8.453 17.87836,-8.48101 25.94383,-0.0625 4.83363,5.04521 6.1796,5.11325 10.46239,0.52892 7.35723,-7.87528 17.55189,-9.70523 26.23362,-4.70899 13.60758,7.83107 12.74351,7.72705 18.27119,2.19938 6.41108,-6.41108 12.07302,-6.6435 20.62776,-0.84674 7.28771,4.93823 7.81815,4.9965 11.76116,1.29223 1.69093,-1.58854 5.47086,-3.71271 8.39985,-4.72036 4.49888,-1.54775 6.07001,-1.52123 10.12257,0.1709 2.63844,1.10164 5.75606,2.87077 6.92803,3.93141 4.96332,4.49172 9.04412,4.83481 16.48771,1.38613 12.06867,-5.59147 14.93135,-5.59593 25.38299,-0.0395 5.10004,2.71139 10.40945,4.92978 11.79873,4.92978 1.38926,0 5.54301,-2.49318 9.23056,-5.54039 4.95098,-4.09126 7.95118,-5.54039 11.47045,-5.54039 5.45008,0 11.06383,2.55789 14.88814,6.78369 1.44942,1.6016 3.10302,2.91199 3.67469,2.91199 0.57166,0 3.62398,-2.15937 6.78294,-4.79861 10.15318,-8.48274 16.87989,-7.98839 28.53251,2.09686 l 6.75377,5.84536 4.89415,-5.501 c 6.08974,-6.84467 9.54541,-8.72324 16.04683,-8.72324 4.10537,0 6.18399,1.08215 10.64223,5.54039 3.04721,3.04721 5.77332,5.54038 6.058,5.54038 0.28469,0 3.27064,-2.10142 6.63545,-4.66985 10.54536,-8.04945 20.79818,-7.52783 30.26493,1.53972 l 3.80901,3.64841 3.80902,-3.50946 c 10.43023,-9.60994 13.74802,-10.02555 25.87863,-3.24175 4.76781,2.66631 10.3582,4.84784 12.42311,4.84784 2.0649,0 8.86123,-2.62938 15.10295,-5.84303 12.35395,-6.36067 21.38998,-7.85065 36.30734,-5.98685 6.0148,0.7515 8.14521,1.69235 9.9015,4.37279 1.77235,2.70495 1.91883,4.11525 0.70435,6.7808 -1.49992,3.2919 -1.86102,3.35882 -16.5116,3.05972 l -14.97815,-0.30579 -10.28428,5.94412 c -16.88911,9.76157 -28.17007,10.60456 -38.80606,2.8999 -2.99553,-2.16996 -6.24671,-3.63073 -7.22485,-3.24619 -0.97814,0.38455 -4.27161,3.75914 -7.31883,7.49911 -9.90381,12.15536 -15.94388,12.2628 -21.85192,0.38871 -4.08673,-8.21356 -7.64848,-9.04923 -14.65181,-3.43758 -12.3153,9.86804 -19.56681,9.83057 -28.22687,-0.14584 l -3.7863,-4.36184 -4.52428,5.07652 c -5.41987,6.08146 -9.11102,8.0819 -14.91247,8.0819 -5.29851,0 -8.81644,-1.76454 -15.58634,-7.81793 -6.4022,-5.72459 -8.9019,-5.79844 -15.61773,-0.46134 -9.01438,7.16372 -15.56357,7.12916 -23.82638,-0.12567 -2.54381,-2.23354 -5.16776,-4.06096 -5.83097,-4.06096 -0.66323,0 -3.9001,2.25097 -7.19308,5.00218 -10.58805,8.84608 -17.06032,9.33898 -27.103,2.06411 -8.23594,-5.96608 -9.9153,-6.09587 -19.60153,-1.51501 -12.24897,5.79284 -21.94233,5.0972 -27.83017,-1.99721 -2.59901,-3.13162 -5.51047,-2.65947 -12.40382,2.01152 -7.73845,5.24363 -14.43994,5.44151 -21.52203,0.63549 l -5.14958,-3.49462 -4.0876,3.4395 c -7.08934,5.96528 -12.57558,6.02735 -23.6032,0.26702 -11.45936,-5.98585 -13.49984,-6.14922 -17.90531,-1.43354 -8.42697,9.02034 -17.35492,9.85616 -26.96056,2.524 l -6.50114,-4.96242 -4.33947,4.17406 c -7.77236,7.47613 -15.26797,7.45507 -23.83512,-0.0671 -4.15965,-3.65223 -5.38966,-4.1111 -7.29715,-2.72234 -8.48821,6.1799 -17.48105,7.26179 -25.66777,3.08796 l -5.2605,-2.68195 -4.2411,4.83035 c -2.33262,2.6567 -5.98752,5.73345 -8.12201,6.83724 -5.42231,2.80399 -17.50412,2.44673 -23.40983,-0.69221 z"
         id="path1330" />
    </g>
  </g>
</svg>
